<?xml version="1.0" encoding="UTF-8" standalone="no"?>
<!DOCTYPE svg PUBLIC "-//W3C//DTD SVG 1.1//EN" "http://www.w3.org/Graphics/SVG/1.1/DTD/svg11.dtd">
<svg width="100%" height="100%" viewBox="0 0 256 142" version="1.1" xmlns="http://www.w3.org/2000/svg" xmlns:xlink="http://www.w3.org/1999/xlink" xml:space="preserve" xmlns:serif="http://www.serif.com/" style="fill-rule:evenodd;clip-rule:evenodd;stroke-linejoin:round;stroke-miterlimit:2;">
    <g transform="matrix(1,0,0,1,-2097.615653,-854.575407)">
        <g transform="matrix(0.102445,0,0,-0.102445,2081.634294,1312.080872)">
            <path d="M1343,4461C1370,4472 1566,4463 1635,4448C1728,4427 1953,4346 1958,4331C1960,4325 1971,4320 1982,4320C2006,4320 2195,4222 2254,4179C2276,4163 2299,4150 2304,4150C2321,4150 2515,3970 2581,3893C2622,3846 2636,3824 2625,3822C2617,3820 2603,3826 2594,3834C2586,3843 2574,3850 2568,3850C2563,3850 2530,3879 2496,3914C2392,4020 2379,4010 2480,3901C2531,3846 2577,3800 2582,3800C2586,3800 2590,3793 2590,3785C2590,3777 2597,3770 2605,3770C2614,3770 2623,3777 2626,3785C2630,3793 2636,3800 2641,3800C2657,3800 2650,3756 2627,3713C2600,3663 2406,3455 2367,3434C2351,3426 2322,3404 2302,3387C2260,3350 2019,3210 1998,3210C1990,3210 1980,3206 1974,3202C1959,3187 1822,3147 1812,3154C1806,3157 1788,3157 1770,3154C1749,3149 1743,3145 1751,3139C1767,3129 1715,3107 1691,3113C1681,3115 1685,3119 1703,3124C1718,3129 1730,3136 1730,3141C1730,3155 1688,3152 1641,3135C1618,3127 1591,3121 1582,3122C1573,3123 1543,3122 1515,3121C1478,3119 1470,3117 1485,3111C1496,3106 1540,3106 1583,3109C1625,3113 1660,3113 1660,3109C1660,3083 1357,3071 1251,3094C1211,3102 1174,3107 1169,3105C1165,3102 1160,3105 1158,3110C1156,3116 1124,3127 1086,3135C1047,3143 1012,3154 1006,3160C991,3175 970,3172 976,3155C984,3136 976,3136 940,3155C923,3164 910,3176 910,3183C910,3196 841,3235 833,3227C831,3224 844,3213 862,3201C890,3182 891,3180 870,3186C827,3198 678,3276 607,3324C569,3349 534,3368 529,3364C520,3359 230,3615 230,3629C230,3633 213,3656 193,3679L156,3722L189,3705C229,3685 237,3690 215,3724C199,3749 199,3750 216,3750C232,3750 232,3752 220,3760C211,3765 201,3765 193,3758C172,3741 177,3803 199,3831C209,3844 227,3873 239,3895C251,3917 258,3924 254,3911C250,3895 270,3911 318,3962C357,4003 413,4055 442,4078C556,4168 647,4231 698,4256C726,4271 750,4286 750,4291C750,4296 760,4300 773,4300C785,4301 811,4309 830,4320C890,4353 913,4361 970,4372C1000,4377 1027,4385 1030,4389C1033,4393 1060,4402 1090,4409C1120,4417 1150,4427 1156,4431C1162,4436 1202,4443 1245,4446C1287,4449 1332,4456 1343,4461ZM1006,4172C1017,4183 1019,4193 1013,4205C1004,4220 1002,4220 991,4206C984,4197 981,4183 984,4173C990,4158 992,4158 1006,4172ZM2440,3585C2459,3604 2472,3620 2469,3620C2459,3620 2386,3550 2396,3550C2401,3550 2421,3566 2440,3585ZM1810,4160C1780,4198 1760,4210 1760,4191C1760,4180 1832,4109 1838,4115C1840,4117 1828,4137 1810,4160ZM2004,3835C1994,3925 1978,3949 1985,3865C1988,3827 1996,3791 2001,3785C2008,3778 2009,3794 2004,3835ZM1624,4267C1566,4293 1483,4309 1494,4291C1499,4283 1480,4280 1431,4280C1287,4280 1167,4239 1074,4157C1031,4120 1022,4106 980,4025C969,4003 949,3965 935,3941C919,3914 910,3881 910,3855C910,3833 906,3810 901,3805C863,3766 913,3581 986,3484C999,3467 1010,3444 1010,3433C1010,3400 1060,3364 1173,3316C1249,3284 1296,3270 1328,3270C1354,3269 1394,3266 1416,3261C1468,3251 1552,3262 1605,3286C1627,3296 1653,3305 1662,3306C1685,3308 1734,3349 1756,3385C1766,3402 1793,3435 1815,3460C1879,3529 1910,3581 1910,3618C1910,3637 1917,3677 1926,3708C1966,3845 1904,4012 1759,4159C1705,4214 1658,4251 1624,4267ZM1838,4201C1836,4206 1819,4221 1800,4232L1765,4254L1794,4222C1823,4190 1845,4180 1838,4201ZM1410,4449C1410,4461 1403,4462 1383,4453C1356,4443 1372,4430 1410,4430C1432,4430 1450,4435 1450,4441C1450,4447 1441,4449 1430,4445C1419,4441 1410,4443 1410,4449ZM1865,4278C1838,4289 1799,4301 1780,4305L1745,4312L1811,4248C1954,4111 2018,3971 2024,3779C2027,3674 1988,3550 1913,3434C1866,3360 1762,3250 1739,3250C1734,3250 1730,3243 1730,3235C1730,3224 1738,3222 1763,3226C1847,3240 2150,3380 2205,3430C2216,3440 2252,3464 2285,3483C2338,3515 2405,3561 2373,3545C2366,3542 2360,3544 2360,3549C2360,3555 2364,3560 2369,3560C2373,3560 2409,3591 2449,3629C2489,3667 2528,3701 2537,3704C2546,3708 2550,3713 2546,3717C2543,3720 2547,3734 2555,3747C2570,3770 2569,3773 2498,3853C2458,3898 2392,3962 2351,3995C2261,4068 2054,4210 2039,4210C2032,4210 2002,4221 1971,4234C1940,4247 1893,4267 1865,4278ZM1098,4308C1106,4334 1047,4316 876,4241C729,4177 650,4135 650,4121C650,4116 642,4113 633,4114C623,4114 616,4110 617,4103C618,4097 603,4079 582,4064C505,4006 381,3886 369,3858C363,3842 337,3812 312,3791L267,3752L318,3693C347,3660 370,3626 370,3617C370,3608 377,3600 386,3600C395,3600 432,3574 468,3542C558,3464 673,3382 740,3350C833,3304 934,3261 976,3251C997,3246 1036,3235 1063,3226C1089,3218 1110,3215 1110,3220C1110,3224 1081,3250 1046,3276C954,3343 840,3504 840,3567C840,3577 833,3606 825,3633C817,3659 813,3687 816,3695C820,3703 817,3710 810,3710C786,3710 806,3861 844,3975C896,4128 942,4195 1046,4264C1072,4281 1095,4301 1098,4308Z"/>
        </g>
    </g>
</svg>
