<?xml version="1.0" encoding="UTF-8" standalone="no"?>
<!DOCTYPE svg PUBLIC "-//W3C//DTD SVG 1.1//EN" "http://www.w3.org/Graphics/SVG/1.1/DTD/svg11.dtd">
<svg width="100%" height="100%" viewBox="0 0 441 77" version="1.1" xmlns="http://www.w3.org/2000/svg" xmlns:xlink="http://www.w3.org/1999/xlink" xml:space="preserve" xmlns:serif="http://www.serif.com/" style="fill-rule:evenodd;clip-rule:evenodd;stroke-linejoin:round;stroke-miterlimit:2;">
    <g transform="matrix(1,0,0,1,-2393.744297,-26.460633)">
        <g transform="matrix(1.396106,0,0,1.396106,-509.352644,-52.412549)">
            <path d="M2082.898,85.071C2084.303,86.317 2085.261,86.764 2085.772,86.413L2086.012,86.221C2086.874,85.598 2087.177,84.624 2086.922,83.299L2085.844,81.814L2084.622,81.167L2083.616,81.885C2082.387,82.971 2082.147,84.033 2082.898,85.071ZM2079.424,110.246L2081.58,57.717L2090.012,58.052L2087.856,110.605L2079.424,110.246Z"/>
            <path d="M2104.671,71.873L2098.874,70.843C2095.904,70.779 2093.11,72.464 2090.491,75.897L2090.491,76.185L2091.329,79.586C2093.677,82.285 2096.208,83.666 2098.922,83.73L2099.234,83.73L2099.545,83.418C2102.994,84.712 2104.711,85.67 2104.695,86.293L2104.671,88.113C2104.639,89.343 2103.897,90.453 2102.443,91.443L2100,91.395C2098.515,91.379 2097.701,91.059 2097.557,90.437C2096.232,87.546 2094.834,86.085 2093.365,86.053L2091.185,87.251C2091.106,91.802 2091.569,94.261 2092.575,94.628L2093.198,94.652L2095.665,94.078L2099.306,95.084L2100.24,94.796L2102.994,95.443C2105.693,95.507 2107.777,93.199 2109.246,88.52L2108.983,86.987L2108.983,86.676L2109.294,86.365L2109.007,86.053C2109.039,84.073 2107.13,82.197 2103.282,80.424C2097.98,79.706 2095.345,78.636 2095.377,77.215C2096.591,75.187 2098.036,74.188 2099.713,74.22L2102.156,75.203C2103.481,77.47 2104.583,78.612 2105.462,78.628C2107.506,78.676 2108.567,76.656 2108.647,72.568C2108.663,71.594 2107.857,70.963 2106.228,70.675L2105.917,70.675L2104.671,71.873ZM2089.078,109.072L2090.084,56.495L2110.54,56.878L2109.534,109.455L2089.078,109.072Z"/>
            <path d="M2111.953,97.431C2112.4,97.814 2112.943,98.166 2113.582,98.485L2122.468,98.102L2128.624,98.437C2129.774,98.389 2130.756,97.527 2131.57,95.85L2131.427,92.497C2131.363,90.868 2130.301,89.99 2128.241,89.862C2127.427,89.91 2127.075,91.147 2127.187,93.575L2127.211,94.197L2123.834,94.054L2121.39,94.461L2119.235,94.245L2119.019,89.646L2119.282,88.113L2118.947,87.802L2120.456,87.443L2120.768,87.443L2123.019,89.167C2124.44,89.103 2125.095,87.954 2124.983,85.718C2124.84,82.444 2124.257,80.831 2123.235,80.879L2121.726,80.951C2121.295,80.967 2120.927,81.901 2120.624,83.754L2120.312,83.778C2118.891,83.826 2118.117,82.532 2117.989,79.897L2118.181,77.095L2118.181,76.807L2119.067,76.472L2119.402,76.759L2122.78,76.616L2126.42,76.137L2126.588,79.801L2127.858,80.999L2129.391,80.927C2130.221,80.895 2130.556,79.139 2130.397,75.658L2130.013,74.125C2129.966,72.943 2129.111,72.168 2127.45,71.801L2125.007,71.897L2124.121,72.544L2123.187,72.592L2123.163,71.993L2121.031,72.089L2120.121,72.711L2119.522,72.759L2115.234,73.238L2113.677,72.4C2112.592,72.448 2111.897,72.887 2111.594,73.717L2111.617,74.316L2112.288,76.137C2113.166,76.105 2113.813,76.791 2114.228,78.197L2113.965,79.442L2114.851,84.927L2114.54,84.927L2114.228,85.263L2114.707,88.928L2114.875,92.592L2114.612,94.125L2112.48,94.221L2111.857,94.94L2110.276,59.058L2131.978,58.1L2134.277,110.629L2112.576,111.563L2111.953,97.431Z"/>
            <path d="M2149.463,72.089L2145.272,71.657L2142.972,71.873C2138.692,71.729 2136.05,75.123 2135.044,82.053C2134.772,89.766 2136.76,94.589 2141.008,96.521L2149.463,96.808L2149.487,96.521C2151.611,95.147 2152.689,93.822 2152.721,92.545L2152.745,92.257L2151.619,91.059L2150.781,91.036C2149.392,92.345 2148.058,92.976 2146.781,92.928L2145.655,92.904L2143.715,92.545L2143.427,92.808C2141.255,92.744 2139.89,91.155 2139.331,88.041L2139.403,86.005L2139.259,82.772L2139.259,82.484C2140.345,77.869 2142.022,75.602 2144.289,75.682L2144.266,75.969L2145.391,75.729C2147.819,76.145 2149.016,76.863 2148.984,77.885C2148.904,80.217 2149.799,81.414 2151.667,81.478L2152.242,81.502C2152.817,81.374 2153.12,80.8 2153.152,79.778L2153.344,74.532C2153.408,72.408 2152.402,71.314 2150.326,71.25L2149.463,72.089ZM2153.511,110.893L2131.978,110.174L2133.75,57.597L2155.308,58.34L2153.511,110.893Z"/>
            <path d="M2154.877,72.52L2154.541,58.268L2178.59,57.717L2178.926,72.017C2178.654,71.633 2178.279,71.274 2177.8,70.939L2171.668,71.394L2171.357,71.394C2170.127,71.426 2169.32,72.049 2168.937,73.262C2169.592,74.684 2170.63,75.378 2172.051,75.346L2172.842,83.299L2172.554,83.634L2172.89,84.832L2171.788,90.077C2170.159,90.78 2169.049,91.523 2168.458,92.305L2168.147,91.994L2166.302,92.353C2163.859,92.401 2161.847,89.279 2160.266,82.987C2160.681,82.971 2160.937,80.72 2161.033,76.232C2162.662,76.185 2163.476,75.849 2163.476,75.226L2163.452,74.915C2163.404,72.887 2161.64,71.913 2158.158,71.993L2155.404,72.041L2154.877,72.52ZM2178.95,73.717L2179.812,110.27L2155.763,110.821L2154.949,75.969C2156.146,76.656 2156.753,77.286 2156.769,77.861L2156.482,77.861L2156.793,78.772L2156.553,81.215C2157.224,85.862 2157.807,88.92 2158.302,90.389L2157.991,90.389C2158.039,92.241 2159.611,94.046 2162.709,95.802C2163.939,95.786 2164.562,96.082 2164.578,96.688L2170.71,96.545C2170.694,95.635 2172.291,94.269 2175.5,92.449C2176.315,89.718 2176.898,88.273 2177.249,88.113L2176.602,85.981L2176.89,85.67L2176.65,75.873L2178.95,73.717Z"/>
            <path d="M2188.243,74.46L2187.932,74.747L2187.716,80.257C2187.701,80.672 2188.403,80.903 2189.824,80.951L2189.824,81.263L2190.136,80.975L2191.046,81.311C2194.112,81.438 2195.685,80.48 2195.765,78.436L2195.789,77.526C2195.869,75.674 2193.353,74.652 2188.243,74.46ZM2179.908,93.431L2181.345,56.687L2202.376,57.501L2200.316,110.054L2179.285,109.216L2179.86,94.82C2180.371,95.778 2181.137,96.273 2182.159,96.305L2185.249,95.802L2187.405,96.209C2189.257,95.81 2190.2,95.028 2190.232,93.862C2190.263,93.143 2189.17,92.489 2186.95,91.898L2187.381,88.856L2187.166,86.389L2187.525,84.88L2189.585,87.395C2193.242,93.064 2195.685,95.922 2196.914,95.97L2197.513,95.994L2199.382,95.443C2199.446,93.702 2197.13,90.245 2192.435,85.071C2197.577,84.289 2200.196,82.644 2200.292,80.137C2200.42,77.023 2200.196,74.971 2199.621,73.981C2199.701,72.192 2196.068,71.027 2188.723,70.484L2185.034,70.34C2182.591,70.244 2181.353,70.604 2181.321,71.418L2181.297,71.729C2181.233,73.358 2182.016,74.204 2183.644,74.268L2183.237,76.712L2183.405,80.4L2183.07,81.311L2183.237,84.712L2183.094,88.688L2182.351,91.395C2180.994,91.81 2180.179,92.489 2179.908,93.431Z"/>
            <path d="M2203.286,97.431C2203.733,97.814 2204.276,98.166 2204.915,98.485L2213.801,98.102L2219.957,98.437C2221.107,98.389 2222.089,97.527 2222.904,95.85L2222.76,92.497C2222.696,90.868 2221.634,89.99 2219.574,89.862C2218.76,89.91 2218.408,91.147 2218.52,93.575L2218.544,94.197L2215.167,94.054L2212.724,94.461L2210.568,94.245L2210.352,89.646L2210.616,88.113L2210.28,87.802L2211.789,87.443L2212.101,87.443L2214.352,89.167C2215.774,89.103 2216.428,87.954 2216.316,85.718C2216.173,82.444 2215.59,80.831 2214.568,80.879L2213.059,80.951C2212.628,80.967 2212.26,81.901 2211.957,83.754L2211.646,83.778C2210.224,83.826 2209.45,82.532 2209.322,79.897L2209.514,77.095L2209.514,76.807L2210.4,76.472L2210.735,76.759L2214.113,76.616L2217.754,76.137L2217.921,79.801L2219.191,80.999L2220.724,80.927C2221.554,80.895 2221.89,79.139 2221.73,75.658L2221.347,74.125C2221.299,72.943 2220.444,72.168 2218.784,71.801L2216.34,71.897L2215.454,72.544L2214.52,72.592L2214.496,71.993L2212.364,72.089L2211.454,72.711L2210.855,72.759L2206.568,73.238L2205.011,72.4C2203.925,72.448 2203.23,72.887 2202.927,73.717L2202.951,74.316L2203.621,76.137C2204.5,76.105 2205.146,76.791 2205.562,78.197L2205.298,79.442L2206.184,84.927L2205.873,84.927L2205.562,85.263L2206.041,88.928L2206.208,92.592L2205.945,94.125L2203.813,94.221L2203.19,94.94L2201.609,59.058L2223.311,58.1L2225.61,110.629L2203.909,111.563L2203.286,97.431Z"/>
            <path d="M2244.222,89.694C2244.254,90.972 2245.268,92.225 2247.264,93.455L2249.324,93.383C2252.629,92.281 2254.258,90.78 2254.21,88.88C2253.747,87.522 2252.853,86.86 2251.528,86.892L2249.755,86.916C2248.877,86.948 2247.032,87.874 2244.222,89.694ZM2239.767,82.101L2239.216,58.795L2257.061,58.363L2257.731,86.724C2256.885,84.297 2254.29,82.899 2249.947,82.532L2249.372,82.532C2245.843,83.155 2244.086,83.985 2244.102,85.023L2243.815,85.023L2243.767,83.251C2246.258,78.109 2248.366,75.522 2250.09,75.49L2253.348,76.256C2254.322,76.24 2254.905,75.945 2255.097,75.37L2255.073,74.484C2254.721,72.52 2253.316,71.57 2250.857,71.633L2249.683,71.657C2248.31,71.689 2247.24,71.913 2246.473,72.328C2242.833,75.905 2240.597,79.163 2239.767,82.101ZM2257.827,90.7L2258.306,110.917L2240.461,111.348L2239.958,89.862L2241.371,93.287C2243.368,95.331 2244.374,96.577 2244.39,97.024L2244.988,97.024L2248.557,97.814L2252.342,97.144C2255.408,95.451 2257.236,93.303 2257.827,90.7Z"/>
            <path d="M2272.247,70.939L2272.678,56.687L2293.445,57.286L2291.889,109.839L2271.121,109.216L2272.199,72.927L2272.75,73.789C2274.379,73.837 2275.241,75.666 2275.337,79.275L2275.026,79.562L2275.002,79.873L2275.313,80.185L2274.642,82.867C2274.946,82.867 2275.113,83.77 2275.145,85.574L2274.81,86.772L2275.337,90.101L2274.954,91.874C2273.309,92.624 2272.479,93.207 2272.463,93.622L2272.463,93.91C2272.415,95.315 2273.716,96.058 2276.367,96.138L2277.612,95.85L2281.613,95.97L2283.146,95.73L2284.056,96.042L2284.966,96.09L2285.277,95.802L2285.254,96.09L2285.876,96.114C2289.757,96.225 2291.729,95.283 2291.793,93.287L2291.793,92.976L2291.529,92.089C2291.609,89.087 2290.835,87.562 2289.206,87.514L2287.984,87.466L2287.673,87.754C2287.657,88.361 2287.441,88.656 2287.026,88.64L2287.242,91.347L2287.242,91.634C2284.735,91.57 2282.786,91.81 2281.397,92.353L2278.978,91.706L2279.337,89.311L2278.81,86.604L2279.337,79.083L2279.074,77.885L2279.385,77.598L2279.409,77.286L2279.098,76.975L2279.409,76.975L2279.122,76.089L2279.481,74.891L2282.595,73.19L2282.595,72.879C2282.483,71.075 2281.078,70.132 2278.379,70.053L2276.559,70.005C2274.499,69.941 2273.061,70.252 2272.247,70.939Z"/>
            <path d="M2294.452,97.431C2294.899,97.814 2295.442,98.166 2296.08,98.485L2304.967,98.102L2311.123,98.437C2312.273,98.389 2313.255,97.527 2314.069,95.85L2313.925,92.497C2313.862,90.868 2312.8,89.99 2310.74,89.862C2309.925,89.91 2309.574,91.147 2309.686,93.575L2309.71,94.197L2306.332,94.054L2303.889,94.461L2301.733,94.245L2301.518,89.646L2301.781,88.113L2301.446,87.802L2302.955,87.443L2303.266,87.443L2305.518,89.167C2306.939,89.103 2307.594,87.954 2307.482,85.718C2307.338,82.444 2306.755,80.831 2305.733,80.879L2304.224,80.951C2303.793,80.967 2303.426,81.901 2303.123,83.754L2302.811,83.778C2301.39,83.826 2300.615,82.532 2300.488,79.897L2300.679,77.095L2300.679,76.807L2301.566,76.472L2301.901,76.759L2305.278,76.616L2308.919,76.137L2309.087,79.801L2310.356,80.999L2311.889,80.927C2312.72,80.895 2313.055,79.139 2312.895,75.658L2312.512,74.125C2312.464,72.943 2311.61,72.168 2309.949,71.801L2307.506,71.897L2306.62,72.544L2305.686,72.592L2305.662,71.993L2303.53,72.089L2302.62,72.711L2302.021,72.759L2297.733,73.238L2296.176,72.4C2295.09,72.448 2294.396,72.887 2294.092,73.717L2294.116,74.316L2294.787,76.137C2295.665,76.105 2296.312,76.791 2296.727,78.197L2296.464,79.442L2297.35,84.927L2297.038,84.927L2296.727,85.263L2297.206,88.928L2297.374,92.592L2297.11,94.125L2294.978,94.221L2294.356,94.94L2292.775,59.058L2314.476,58.1L2316.776,110.629L2295.074,111.563L2294.452,97.431Z"/>
            <path d="M2327.579,77.454C2328.361,77.422 2328.96,79.546 2329.375,83.826L2329.088,84.137L2329.758,85.335L2327.315,85.742L2325.758,85.502L2325.734,84.904C2326.405,83.802 2327.02,81.319 2327.579,77.454ZM2340.681,95.491L2341.28,110.03L2317.255,111.012L2316.728,98.006C2317.143,98.182 2317.67,98.309 2318.309,98.389L2321.95,97.623C2323.994,97.543 2324.992,96.888 2324.944,95.658C2324.912,94.844 2324.169,94.062 2322.716,93.311C2323.69,91.986 2324.161,90.94 2324.129,90.173L2324.728,90.149L2329.279,89.047L2330.812,88.999L2332.178,92.616C2331.188,93.447 2330.709,94.285 2330.74,95.131L2330.764,95.419L2331.747,96.904L2340.322,96.569L2340.681,95.491ZM2316.608,95.108L2315.123,58.459L2339.148,57.501L2340.585,93.167C2340.042,92.832 2339.084,92.672 2337.711,92.688C2336.96,92.72 2335.507,89.71 2333.351,83.658C2333.064,76.488 2331.363,72.36 2328.249,71.274L2325.83,72.017L2324.297,71.753L2323.986,71.777L2323.674,72.089L2322.453,71.825C2320.856,72.911 2320.073,73.757 2320.105,74.364C2320.872,75.562 2322.117,76.129 2323.842,76.065L2324.465,76.041L2318.692,92.832L2316.608,95.108Z"/>
            <path d="M2341.376,95.251L2341.376,73.598C2341.775,74.204 2342.557,74.771 2343.723,75.298L2343.412,77.382L2343.412,81.55C2343.412,82.939 2343.611,84.033 2344.011,84.832C2343.611,84.832 2343.412,85.327 2343.412,86.317L2344.011,88.425L2343.412,89.91L2344.011,92.904L2343.723,93.79L2341.376,95.251ZM2341.376,72.352L2341.376,58.34L2362.335,58.34L2362.335,73.406C2361.728,72.703 2359.428,72.041 2355.436,71.418C2354.67,71.418 2353.991,71.913 2353.4,72.903L2353.4,73.789L2355.149,75.873L2347.819,83.059L2347.22,83.059L2347.22,82.772L2347.532,81.55L2347.22,80.376L2347.22,77.694L2347.532,75.011C2349.033,73.861 2349.815,72.967 2349.879,72.328L2348.705,71.418L2345.759,71.705L2344.609,71.418C2343.172,71.498 2342.094,71.809 2341.376,72.352ZM2362.335,74.795L2362.335,94.94C2360.482,94.349 2359.556,93.766 2359.556,93.191C2358.582,92.249 2356.434,89.063 2353.113,83.634L2360.418,75.873C2361.408,75.873 2362.047,75.514 2362.335,74.795ZM2362.335,96.497L2362.335,110.941L2341.376,110.941L2341.376,95.97C2341.535,97.104 2342.414,97.671 2344.011,97.671L2344.897,97.671L2346.645,97.359L2348.106,97.671L2348.993,97.671C2349.392,97.671 2349.783,97.08 2350.166,95.898L2349.304,94.988C2347.915,94.988 2347.22,93.694 2347.22,91.107L2347.532,88.999C2347.532,87.977 2348.218,87.083 2349.592,86.317C2351.588,88.265 2353.248,90.756 2354.574,93.79C2353.6,94.094 2353.113,94.796 2353.113,95.898C2353.113,97.08 2355.26,97.671 2359.556,97.671C2360.706,97.671 2361.632,97.279 2362.335,96.497Z"/>
            <path d="M2378.527,73.358L2372.682,72.592C2369.712,72.671 2366.998,74.476 2364.538,78.005L2364.538,78.316L2365.544,81.67C2368.004,84.257 2370.59,85.518 2373.305,85.454L2373.617,85.454L2373.904,85.119C2377.417,86.269 2379.182,87.147 2379.198,87.754L2379.246,89.598C2379.277,90.828 2378.591,91.97 2377.186,93.024L2374.718,93.095C2373.249,93.127 2372.427,92.84 2372.251,92.233C2370.798,89.407 2369.329,88.009 2367.844,88.041L2365.736,89.335C2365.848,93.87 2366.423,96.305 2367.461,96.641L2368.059,96.617L2370.503,95.946L2374.215,96.784L2375.126,96.449L2377.904,97C2380.603,96.92 2382.583,94.517 2383.845,89.79L2383.509,88.257L2383.485,87.946L2383.797,87.634L2383.485,87.347C2383.421,85.351 2381.433,83.562 2377.521,81.981C2372.187,81.502 2369.505,80.544 2369.473,79.107C2370.59,77.031 2371.996,75.977 2373.688,75.945L2376.156,76.783C2377.593,79.003 2378.743,80.105 2379.605,80.089C2381.649,80.025 2382.623,77.949 2382.527,73.861C2382.495,72.903 2381.657,72.312 2380.012,72.089L2379.725,72.113L2378.527,73.358ZM2364.61,111.228L2363.269,58.651L2383.725,58.124L2385.066,110.701L2364.61,111.228Z"/>
            <path d="M2387.629,85.071C2389.034,86.317 2389.992,86.764 2390.503,86.413L2390.743,86.221C2391.605,85.598 2391.909,84.624 2391.653,83.299L2390.575,81.814L2389.354,81.167L2388.348,81.885C2387.118,82.971 2386.879,84.033 2387.629,85.071ZM2384.156,110.246L2386.312,57.717L2394.743,58.052L2392.587,110.605L2384.156,110.246Z"/>
        </g>
    </g>
</svg>
